<?xml version="1.0" encoding="utf-8"?>
<svg viewBox="21.223 27.4183 66.109 29.4973" xmlns="http://www.w3.org/2000/svg">
  <defs>
    <linearGradient id="paint0_linear_6_6" x1="99.9985" y1="31.8334" x2="99.9985" y2="-1.73826" gradientUnits="userSpaceOnUse" gradientTransform="matrix(1, 0, 0, 1, -45.713181, 27.419373)">
      <stop stop-color="#5CB885"/>
      <stop offset="1" stop-color="#00746D"/>
    </linearGradient>
  </defs>
  <path d="M 58.761 39.973 L 56.459 37.656 L 62.343 31.731 C 64.055 30.011 66.163 28.744 68.48 28.043 C 70.796 27.342 73.249 27.229 75.62 27.714 C 77.99 28.199 80.205 29.266 82.066 30.822 C 83.927 32.377 85.377 34.372 86.287 36.628 L 82.678 36.628 C 82.165 35.684 81.52 34.819 80.762 34.06 C 78.624 31.911 75.726 30.704 72.705 30.704 C 69.683 30.704 66.785 31.911 64.647 34.06 L 58.761 39.973 Z M 49.81 44.349 L 43.927 50.271 C 41.788 52.418 38.891 53.624 35.87 53.624 C 32.849 53.624 29.951 52.418 27.812 50.271 C 26.469 48.926 25.484 47.262 24.948 45.432 L 35 45.432 L 35 42.164 L 21.223 42.164 C 21.225 45.08 22.084 47.93 23.695 50.354 C 25.305 52.778 27.593 54.667 30.269 55.782 C 32.946 56.897 35.891 57.189 38.732 56.62 C 41.573 56.051 44.183 54.646 46.231 52.584 L 52.115 46.663 L 49.81 44.349 Z M 84.386 42.167 L 73.58 42.167 L 73.58 45.432 L 83.614 45.432 C 83.05 47.336 82.004 49.06 80.58 50.435 C 79.155 51.81 77.4 52.79 75.486 53.277 C 73.573 53.765 71.567 53.744 69.663 53.217 C 67.76 52.69 66.026 51.675 64.629 50.271 L 58.129 43.725 L 46.213 31.731 C 44.501 30.011 42.393 28.744 40.076 28.043 C 37.76 27.342 35.307 27.229 32.936 27.714 C 30.566 28.199 28.351 29.266 26.49 30.822 C 24.629 32.377 23.179 34.372 22.269 36.628 L 25.878 36.628 C 26.391 35.684 27.036 34.819 27.794 34.06 C 29.932 31.911 32.83 30.704 35.851 30.704 C 38.873 30.704 41.771 31.911 43.909 34.06 L 50.409 40.603 L 62.324 52.597 C 64.373 54.658 66.983 56.063 69.824 56.632 C 72.665 57.201 75.61 56.91 78.287 55.794 C 80.963 54.679 83.251 52.79 84.861 50.366 C 86.472 47.942 87.331 45.092 87.332 42.176 L 84.386 42.167 Z" fill="url(#paint0_linear_6_6)"/>
</svg>